<svg width="36" height="36" viewBox="0 0 36 36" fill="none" xmlns="http://www.w3.org/2000/svg">
<path d="M12.1574 37H2.59393C2.1712 37 1.76578 36.8321 1.46686 36.5332C1.16794 36.2342 1.00001 35.8288 1.00001 35.4061V26.5001C0.999284 26.2931 1.03939 26.088 1.11802 25.8965C1.19665 25.7051 1.31227 25.531 1.45826 25.3843L25.3671 1.47551C25.5154 1.32491 25.6921 1.20531 25.8871 1.12368C26.0821 1.04204 26.2913 1 26.5027 1C26.7141 1 26.9233 1.04204 27.1183 1.12368C27.3133 1.20531 27.4901 1.32491 27.6384 1.47551L36.5245 10.3616C36.6751 10.5099 36.7947 10.6867 36.8763 10.8817C36.958 11.0767 37 11.2859 37 11.4973C37 11.7087 36.958 11.9179 36.8763 12.1129C36.7947 12.3079 36.6751 12.4846 36.5245 12.6329L12.1574 37ZM12.1574 37H36.0662M20.127 6.71552L31.2845 17.873" stroke="black" stroke-width="1.5" stroke-linecap="round" stroke-linejoin="round"/>
</svg>
